<svg data-v-8f505764="" width="128" height="128" viewBox="0 0 128 128" fill="none" xmlns="http://www.w3.org/2000/svg">
  <g data-v-8f505764="">
    <path data-v-8f505764="" fill-rule="evenodd" clip-rule="evenodd"
      d="M124 12.0645C88.4476 -2.80508 45.0269 -5.18348 4 12.0362V68.0882C6.64583 88.0379 25.3339 120.865 64 128C102.666 120.865 121.354 88.0379 124 68.0882V12.0645Z"
      fill="url(#paint0_linear)"></path>
    <path data-v-8f505764="" d="M16 22.6509V67.2549C18.0941 83.1699 32.9621 109.346 63.7451 115" stroke="black"
      stroke-opacity="0.7" stroke-dasharray="8 8"></path>
    <path data-v-8f505764="" d="M111.49 22.6509V67.2549C109.396 83.1699 94.5282 109.346 63.7451 115" stroke="black"
      stroke-opacity="0.7" stroke-dasharray="8 8"></path>
    <path data-v-8f505764="" d="M16 22.6508C48.6677 8.82992 83.2733 10.7591 111.543 22.6953" stroke="black"
      stroke-opacity="0.7" stroke-dasharray="8 8"></path>
  </g><text data-v-8f505764="" fill="black" fill-opacity="0.9" xml:space="preserve" font-family="Helvetica Neue"
    font-size="50" letter-spacing="0em" style="white-space: pre;">
    <tspan data-v-8f505764="" x="38.2168" y="79.475">1</tspan>
  </text><text data-v-8f505764="" fill="black" fill-opacity="0.9" xml:space="preserve" font-family="Helvetica Neue"
    font-size="32" letter-spacing="0em" style="white-space: pre;">
    <tspan data-v-8f505764="" x="64" y="78.824">.9</tspan>
  </text><text data-v-8f505764="" id="kp" fill="black" fill-opacity="0.7" xml:space="preserve"
    font-family="Helvetica Neue" font-size="12" letter-spacing="0em" style="white-space: pre;">
    <tspan data-v-8f505764="" x="64" y="110" text-anchor="middle">107</tspan>
  </text>
  <defs data-v-8f505764="">
    <linearGradient data-v-8f505764="" id="paint0_linear" x1="4" y1="9" x2="108.075" y2="112.925"
      gradientUnits="userSpaceOnUse">
      <stop data-v-8f505764="" stop-color="#DFC873"></stop>
      <stop data-v-8f505764="" offset="1" stop-color="#9B5E2A"></stop>
    </linearGradient>
  </defs>
</svg>